<svg width="500" height="500" viewBox="0 0 500 500" fill="none" xmlns="http://www.w3.org/2000/svg">
<rect width="500" height="500" fill="#0A0A0A"/>
<path d="M127 343C102.147 343 82 322.853 82 298V298C82 273.147 102.147 253 127 253L232 253L232 271C232 296.202 232 308.804 227.095 318.43C222.781 326.897 215.897 333.781 207.43 338.095C197.804 343 185.202 343 160 343L127 343Z" fill="#FAFAFA"/>
<path d="M142 202C142 177.147 162.147 157 187 157V157C211.853 157 232 177.147 232 202V247H187C162.147 247 142 226.853 142 202V202Z" fill="#FAFAFA"/>
<path d="M238 229C238 203.798 238 191.196 242.905 181.57C247.219 173.103 254.103 166.219 262.57 161.905C272.196 157 284.798 157 310 157H373C397.853 157 418 177.147 418 202V202C418 226.853 397.853 247 373 247H238V229Z" fill="#FAFAFA"/>
</svg>
