<svg width="56" height="31" viewBox="0 0 56 31" xmlns="http://www.w3.org/2000/svg">
<path d="M7.5 31C3.35786 31 4.00421e-08 27.6421 8.94366e-08 23.5C1.38831e-07 19.3579 3.35787 16 7.5 16L23.4375 16C24.3004 16 25 16.6996 25 17.5625L25 26C25 28.7614 22.7614 31 20 31L7.5 31Z" fill="#171717"/>
<path d="M10 7.5C10 3.35786 13.3579 0 17.5 0C21.6421 0 25 3.35786 25 7.5V15H17.5C13.3579 15 10 11.6421 10 7.5Z" fill="#2563EB"/>
<path d="M26 6C26 2.68629 28.6863 0 32 0H48.5C52.6421 0 56 3.35786 56 7.5C56 11.6421 52.6421 15 48.5 15H27.875C26.8395 15 26 14.1605 26 13.125V6Z" fill="#171717"/>
</svg>
